<?xml version="1.0" encoding="utf-8"?><svg xmlns="http://www.w3.org/2000/svg" width="49.482" height="49.482" xmlns:v="https://vecta.io/nano"><path d="M24.741 0C11.099 0 .001 11.099.001 24.741S11.1 49.483 24.741 49.483s24.74-11.1 24.74-24.742S38.384 0 24.741 0zm0 48.066c-12.862 0-23.326-10.463-23.326-23.326S11.879 1.414 24.741 1.414 48.065 11.878 48.065 24.74 37.603 48.066 24.741 48.066zm.326-38.247c-4.389 0-8.059 2.912-9.133 7.247-.047.189-.016.384.084.551a.72.72 0 0 0 .447.331l5.115 1.279a.74.74 0 0 0 .861-.459c.414-1.146 1.361-2.302 2.551-2.302 1.875 0 2.543 1.178 2.543 2.28 0 1.15 0 2.581-4.912 2.581a.73.73 0 0 0-.728.728v7.599a.73.73 0 0 0 .728.728h5.188a.73.73 0 0 0 .729-.728v-2.74c3.428-.785 6.094-4.117 6.094-7.641 0-5.743-3.756-9.454-9.567-9.454zm2.649 15.765a.73.73 0 0 0-.631.723v2.618h-3.733v-6.153c4.004-.118 5.639-1.291 5.639-4.026 0-2.235-1.607-3.736-3.998-3.736-2.135 0-3.291 1.908-3.66 2.655l-3.781-.946c1.119-3.312 4.051-5.443 7.516-5.443 5.002 0 8.108 3.064 8.108 7.997.001 3.078-2.448 5.911-5.46 6.311zm-2.686 6.085c-2.197 0-3.852 1.655-3.852 3.851s1.654 3.849 3.852 3.849 3.85-1.655 3.85-3.849-1.656-3.851-3.85-3.851zm0 6.243a2.31 2.31 0 0 1-2.395-2.393c0-1.388 1.006-2.395 2.395-2.395s2.393 1.007 2.393 2.395a2.31 2.31 0 0 1-2.393 2.393z"/></svg>