<?xml version="1.0" encoding="utf-8"?><svg xmlns="http://www.w3.org/2000/svg" xmlns:xlink="http://www.w3.org/1999/xlink" viewBox="0 -20 512 511" xmlns:v="https://vecta.io/nano"><use xlink:href="#B"/><use xlink:href="#B" x="49.531"/><use xlink:href="#B" x="99.062"/><path d="M444.309 48.395h-192.93a10 10 0 0 0-10 10c0 5.52 4.477 10 10 10h192.93c5.523 0 10-4.48 10-10a10 10 0 0 0-10-10zM262.891 452.438c-2.629 0-5.199 1.07-7.07 2.93a10.08 10.08 0 0 0-2.93 7.07 10.08 10.08 0 0 0 2.93 7.07c1.871 1.859 4.441 2.93 7.07 2.93a10.08 10.08 0 0 0 7.07-2.93c1.867-1.859 2.93-4.441 2.93-7.07s-1.062-5.211-2.93-7.07a10.08 10.08 0 0 0-7.07-2.93zm0 0"/><path d="M480.23.5H31.77C14.254.5 0 14.754 0 32.27v408.398c0 17.52 14.254 31.77 31.77 31.77H221a10 10 0 1 0 0-20H31.77c-6.488 0-11.77-5.277-11.77-11.77V116.289h472v324.379a11.79 11.79 0 0 1-11.77 11.77H303.668a10 10 0 1 0 0 20H480.23c17.516 0 31.77-14.25 31.77-31.77V32.27C512 14.754 497.746.5 480.23.5zM20 96.285V32.27A11.79 11.79 0 0 1 31.77 20.5h448.46A11.79 11.79 0 0 1 492 32.27v64.02H20zM178.039 230.5c0-19.852-16.148-36-36-36h-33.668a10 10 0 0 0-10 10v104a10 10 0 0 0 10 10h33.668c19.852 0 36-16.148 36-36 0-10.215-4.281-19.441-11.141-26 6.859-6.559 11.141-15.785 11.141-26zm-20 52c0 8.82-7.18 16-16 16h-23.668v-32h23.668c8.82 0 16 7.176 16 16zm-39.668-36v-32h23.668c8.824 0 16 7.18 16 16s-7.176 16-16 16zm88.277-52a10 10 0 0 0-10 10v80.871c0 18.27 14.863 33.129 33.129 33.129a10 10 0 1 0 0-20 13.15 13.15 0 0 1-13.129-13.129V204.5a10 10 0 0 0-10-10zm118.219 87.789c0-19.969-16.242-36.215-36.211-36.215s-36.211 16.246-36.211 36.215 16.246 36.211 36.211 36.211 36.211-16.242 36.211-36.211zm-52.422 0c0-8.941 7.273-16.215 16.211-16.215s16.211 7.273 16.211 16.215a16.23 16.23 0 0 1-16.211 16.211c-8.941 0-16.211-7.273-16.211-16.211zM377.414 346.5c-8.937 0-16.211-7.273-16.211-16.211a10 10 0 1 0-20 0c0 19.969 16.246 36.211 36.211 36.211s36.215-16.242 36.215-36.211v-48c0-19.969-16.246-36.215-36.215-36.215s-36.211 16.246-36.211 36.215 16.246 36.211 36.211 36.211c5.828 0 11.332-1.391 16.215-3.848v15.637c0 8.938-7.273 16.211-16.215 16.211zm0-48c-8.937 0-16.211-7.273-16.211-16.211s7.273-16.215 16.211-16.215 16.215 7.273 16.215 16.215-7.273 16.211-16.215 16.211zm-269.043 118h295.258a10 10 0 1 0 0-20H108.371c-5.52 0-10 4.477-10 10s4.48 10 10 10zm0 0"/><defs ><path id="B" d="M67.18 48.395h-.102a10 10 0 1 0 0 20h.102a10 10 0 1 0 0-20zm0 0"/></defs></svg>