<?xml version="1.0" encoding="utf-8"?><svg xmlns="http://www.w3.org/2000/svg" height="512" width="512" xmlns:v="https://vecta.io/nano"><path d="M490.818 113.54c-20.05-11.58-45.79-4.68-57.37 15.37l-37.26 64.55V140c0-5.52-4.48-10-10-10a10 10 0 0 0-10 10v88 .09l-109.83 190.23c-.7 1.2-1.13 2.54-1.28 3.93l-7.52 69.75H20.188V20h356v30a10 10 0 0 0 10 10c5.52 0 10-4.48 10-10V10c0-5.52-4.48-10-10-10h-376a10 10 0 0 0-10 10v492a10 10 0 0 0 10 10h376c5.52 0 10-4.48 10-10V361.45l110.01-190.54c11.57-20.05 4.68-45.79-15.38-57.37zm-207.5 326.12l28.83 16.64-33.24 24.28zm92.87 52.34h-79l39.16-28.61c1.12-.82 2.06-1.87 2.76-3.07l37.08-64.22zm-49.4-50.34l-38.11-22 146.37-253.51 38.1 22zm162.08-280.75l-5.72 9.92-38.1-22 5.72-9.92c6.06-10.5 19.55-14.11 30.05-8.05 10.51 6.07 14.12 19.55 8.05 30.05zM386.188 85a10.06 10.06 0 0 0-7.07 2.93c-1.86 1.86-2.93 4.44-2.93 7.07a10.06 10.06 0 0 0 2.93 7.07c1.86 1.86 4.44 2.93 7.07 2.93s5.21-1.07 7.07-2.93 2.93-4.44 2.93-7.07-1.07-5.21-2.93-7.07a10.06 10.06 0 0 0-7.07-2.93zm-87 21h-202a10 10 0 1 0 0 20h202c5.52 0 10-4.48 10-10s-4.48-10-10-10zm0 56h-202a10 10 0 1 0 0 20h202c5.52 0 10-4.48 10-10s-4.48-10-10-10zm0 56h-74.25a10 10 0 1 0 0 20h74.25c5.52 0 10-4.48 10-10s-4.48-10-10-10zm10 66c0-5.52-4.48-10-10-10h-202a10 10 0 1 0 0 20h202c5.52 0 10-4.48 10-10zm-43 56c0-5.52-4.48-10-10-10h-62.5a10 10 0 1 0 0 20h62.5c5.52 0 10-4.48 10-10zm-169 66h88c5.52 0 10-4.48 10-10s-4.48-10-10-10h-88a10 10 0 1 0 0 20z"/><path d="M97.188 238h66.66a10 10 0 1 0 0-20h-66.66a10 10 0 1 0 0 20zm0 112h51.5c5.52 0 10-4.48 10-10s-4.48-10-10-10h-51.5a10 10 0 1 0 0 20z"/></svg>