<?xml version="1.0" encoding="utf-8"?><svg xmlns="http://www.w3.org/2000/svg" height="512" viewBox="0 0 512.005 512.005" width="512" xmlns:v="https://vecta.io/nano"><path d="M489.765 270.726l-77.274-20.705c-10.239-2.743-20.679.186-27.989 6.843l-21.212-39.339c-13.197-24.475-31.711-45.893-53.945-62.517l55.689-55.689c3.905-3.905 3.905-10.237 0-14.143L302.809 22.95c-3.905-3.904-10.237-3.904-14.143 0l-93.991 93.991a190.5 190.5 0 0 0-73.16 14.572c-23.345 9.67-44.242 23.633-62.11 41.5L31.97 200.449c-7.178 7.178-11.13 16.72-11.13 26.87a37.75 37.75 0 0 0 11.13 26.87c4.934 4.934 10.899 8.215 17.207 9.863L.847 373.959a10 10 0 0 0 2.083 11.097 10 10 0 0 0 7.074 2.929c1.358 0 2.728-.276 4.023-.846l109.921-48.336c1.646 6.318 4.929 12.293 9.869 17.234 7.408 7.408 17.139 11.112 26.87 11.112s19.462-3.704 26.87-11.112l10.888-10.888 4.36 4.36c22.895 51.52 72.659 85.46 128.643 88.265-.764 6.39.542 12.827 3.818 18.5a29.8 29.8 0 0 0 18.216 13.978l77.274 20.706a29.94 29.94 0 0 0 7.757 1.025c13.244 0 25.398-8.853 28.985-22.239l9.829-36.684a10 10 0 0 0-7.071-12.247c-5.332-1.43-10.818 1.736-12.247 7.071l-9.829 36.684c-1.427 5.327-6.921 8.5-12.248 7.071l-77.274-20.706c-2.58-.691-4.736-2.346-6.072-4.659s-1.69-5.008-.999-7.588l43.481-162.275a10.02 10.02 0 0 1 12.248-7.071l77.274 20.705c5.326 1.428 8.499 6.922 7.071 12.248l-10.354 38.643a10 10 0 0 0 7.071 12.247c5.331 1.43 10.818-1.736 12.247-7.071l10.354-38.643c4.282-15.979-5.235-32.461-21.214-36.743zM343.821 92.247L204.079 231.989l-1.125-1.125a41.71 41.71 0 0 0-20.424-11.267L326.85 75.276zm-48.083-48.083l16.97 16.97L89.951 283.89l-16.97-16.97zM46.112 240.047a17.88 17.88 0 0 1 0-25.456l27.435-27.436c27.277-27.277 62.128-44.229 99.81-48.897L71.567 240.047c-7.017 7.02-18.437 7.018-25.455 0zm15.995 44.284l41.546 41.546-74.155 32.609zm58.958 30.672l-16.97-16.97 28.217-28.217c1.682 7.498 5.423 14.622 11.246 20.446l1.125 1.125zm52.348 26.891c-7.019 7.018-18.438 7.017-25.456.001s-7.018-18.439 0-25.457l10.888-10.888 25.456 25.455zm163.028 76.044c-50.645-.982-96.007-31.406-116.04-78.106a10.01 10.01 0 0 0-2.119-3.129l-60.583-60.583c-8.578-8.577-8.578-22.535 0-31.112 4.155-4.155 9.68-6.444 15.556-6.444s11.401 2.289 15.556 6.444l60.583 60.583c3.905 3.904 10.237 3.904 14.143 0s3.905-10.237 0-14.143l-45.316-45.316 76.804-76.804c20.953 15.116 38.383 34.917 50.662 57.689l27.998 51.923zm142.879-20.935c-2.64 0-5.21-1.07-7.08-2.931a10.08 10.08 0 0 1-2.92-7.069 10.09 10.09 0 0 1 2.92-7.08c1.86-1.86 4.44-2.92 7.08-2.92 2.63 0 5.21 1.06 7.07 2.92 1.86 1.87 2.93 4.439 2.93 7.08 0 2.63-1.07 5.21-2.93 7.069a10.09 10.09 0 0 1-7.07 2.931z"/></svg>