<?xml version="1.0" encoding="utf-8"?><svg xmlns="http://www.w3.org/2000/svg" height="661.333" viewBox="-64 0 496 496" width="661.333" xmlns:v="https://vecta.io/nano"><path d="M367.391 101a7.16 7.16 0 0 0-.648-1.047 7.76 7.76 0 0 0-.848-1.359l-88-96c-.039-.043-.094-.059-.133-.098-.59-.57-1.258-1.051-1.984-1.426-.219-.109-.387-.301-.609-.406A8.04 8.04 0 0 0 272 0H8a8 8 0 0 0-8 8v480a8 8 0 0 0 8 8h352a8 8 0 0 0 8-8V104a7.99 7.99 0 0 0-.609-3zM280 28.559L341.816 96H280zM16 480V16h248v88a8 8 0 0 0 8 8h80v368zm48-328a8 8 0 1 0 0 16h112a8 8 0 1 0 0-16h-16v-48h16c3.344-.004 6.336-2.09 7.496-5.227a8 8 0 0 0-2.297-8.844l-56-48c-2.992-2.562-7.406-2.562-10.398 0l-56 48c-2.539 2.176-3.457 5.703-2.297 8.844A8 8 0 0 0 64 104h16v48zm56-93.465L154.398 88H85.602zM96 104h48v48H96zm0 0"/><path d="M304 208H64a8 8 0 1 0 0 16h240a8 8 0 1 0 0-16zM64 288h144a8 8 0 1 0 0-16H64a8 8 0 1 0 0 16zm240 48H64a8 8 0 1 0 0 16h240a8 8 0 1 0 0-16zm-168 64H64a8 8 0 1 0 0 16h72a8 8 0 1 0 0-16zm0 0"/><path d="M176 400h-16a8 8 0 1 0 0 16h16a8 8 0 1 0 0-16zm88-112a8 8 0 1 0 0-16h-32a8 8 0 1 0 0 16zm40-16h-16a8 8 0 1 0 0 16h16a8 8 0 1 0 0-16zm0 0"/></svg>