<?xml version="1.0" encoding="utf-8"?><svg xmlns="http://www.w3.org/2000/svg" xmlns:xlink="http://www.w3.org/1999/xlink" height="512" viewBox="0 0 128 128" width="512" xmlns:v="https://vecta.io/nano"><path d="M98.72 116.72v-7.955h9.22a1.75 1.75 0 0 0 1.75-1.75V37.2a1.828 1.828 0 0 0-.514-1.24l-26-25.909a1.852 1.852 0 0 0-1.236-.511H31.03a1.75 1.75 0 0 0-1.75 1.75v7.96h-9.22A1.75 1.75 0 0 0 18.31 21v95.72a1.75 1.75 0 0 0 1.75 1.75h76.91a1.751 1.751 0 0 0 1.75-1.75zM83.69 15.5c23.851 23.768-3.914-3.887 20.014 19.944H83.69zm-50.91-2.465h47.41V37.2a1.751 1.751 0 0 0 1.75 1.75h24.25v66.32H32.78zM21.81 114.97V22.75h7.47v84.265a1.75 1.75 0 0 0 1.75 1.75h64.19v6.2z"/><use xlink:href="#B"/><path d="M51.83 46.65a1.749 1.749 0 0 0 1.75 1.75h41.36a1.75 1.75 0 0 0 0-3.5H53.58a1.75 1.75 0 0 0-1.75 1.75z"/><use xlink:href="#B" y="10.728"/><use xlink:href="#C"/><use xlink:href="#B" y="21.455"/><use xlink:href="#C" y="10.727"/><path d="M41.4 80.583h5.091a1.75 1.75 0 1 0 0-3.5H41.4a1.75 1.75 0 1 0 0 3.5z"/><use xlink:href="#C" y="21.455"/><path d="M41.4 91.31h5.091a1.75 1.75 0 1 0 0-3.5H41.4a1.75 1.75 0 1 0 0 3.5zm53.54-3.5H53.58a1.75 1.75 0 1 0 0 3.5h41.36a1.75 1.75 0 0 0 0-3.5zM41.4 40.128h11.589a1.75 1.75 0 0 0 1.75-1.75V26.787a1.749 1.749 0 0 0-1.75-1.75H41.4a1.75 1.75 0 0 0-1.75 1.75v11.591a1.751 1.751 0 0 0 1.75 1.75zm1.75-11.591h8.091v8.091h-8.093z"/><defs ><path id="B" d="M41.4 48.4h5.091a1.75 1.75 0 0 0 0-3.5H41.4a1.75 1.75 0 0 0 0 3.5z"/><path id="C" d="M94.94 55.628H53.58a1.75 1.75 0 0 0 0 3.5h41.36a1.75 1.75 0 0 0 0-3.5z"/></defs></svg>