<?xml version="1.0" encoding="utf-8"?><svg xmlns="http://www.w3.org/2000/svg" height="512" width="512" xmlns:v="https://vecta.io/nano"><path d="M363.55 271.062l3.624-3.623a11.45 11.45 0 0 0 2.83-11.586c-1.297-4.104-4.735-7.113-8.975-7.854l-47.283-8.275a11.5 11.5 0 0 0-13.297 13.297l8.274 47.283a11.45 11.45 0 0 0 19.441 6.144l3.624-3.624 22.261 22.261c4.383 4.428 11.852 4.446 16.25.002l15.513-15.513c4.479-4.48 4.479-11.769 0-16.249zm-1.375 40.934l-22.264-22.264c-2.24-2.238-5.182-3.357-8.123-3.357-3.59 0-7.049 1.822-9.453 4.688l-6.248-35.703 35.702 6.249c-5.532 4.299-6.34 12.593-1.329 17.577l22.263 22.262zm-70.525-84.885a7.5 7.5 0 0 0 7.5-7.5v-10.269l13.398 15.224c2.746 3.119 7.487 3.401 10.585.675 3.109-2.736 3.411-7.476.675-10.585l-11.125-12.64c7.617-3.039 12.995-10.281 12.995-18.721 0-11.167-9.409-20.252-20.974-20.252h-13.039c-4.159 0-7.516 3.357-7.516 7.5v49.067c.001 4.144 3.359 7.501 7.501 7.501zm13.055-49.067c3.238 0 5.974 2.405 5.974 5.252s-2.735 5.252-5.974 5.252l-5.489.017-.027-10.521zm41.741 49.067a7.5 7.5 0 0 0 7.5-7.5v-24.916l19.446 28.159c2.15 3.106 5.756 4.418 9.19 3.346 3.49-1.092 5.746-4.326 5.746-8.314l-.459-47.414a7.5 7.5 0 0 0-7.498-7.428h-.074c-4.143.04-7.468 3.431-7.428 7.572l.247 25.442-20.499-29.685a7.5 7.5 0 0 0-13.672 4.262v48.976c.001 4.143 3.359 7.5 7.501 7.5zm-100.048-76.536h19.203a7.5 7.5 0 1 0 0-15h-11.703v-7.787h10.287a7.5 7.5 0 1 0 0-15h-10.287V105h11.703a7.5 7.5 0 1 0 0-15h-19.203a7.5 7.5 0 0 0-7.5 7.5v45.575a7.5 7.5 0 0 0 7.5 7.5zM179.51 37.5a7.5 7.5 0 1 0 15 0 7.5 7.5 0 1 0-15 0zm42.701 189.12c3.779 1.44 8.192-.419 9.679-4.339l2.749-7.218h19.249l2.716 7.196a7.5 7.5 0 1 0 14.033-5.297l-18.257-48.378c-1.268-3.355-4.475-5.541-8.044-5.54h-.005c-3.581.001-6.74 2.187-8.034 5.521l-18.425 48.376a7.5 7.5 0 0 0 4.339 9.679zm22.097-36.943l3.92 10.387h-7.876zM149.51 37.5a7.5 7.5 0 1 0 15 0 7.5 7.5 0 1 0-15 0zm-30 0a7.5 7.5 0 1 0 15 0 7.5 7.5 0 1 0-15 0zm354.99 5.54h-52.01V19.5c0-10.752-8.748-19.5-19.5-19.5h-43.673a7.5 7.5 0 1 0 0 15h43.673c2.481 0 4.5 2.019 4.5 4.5V60H104.51V19.5c0-2.481 2.019-4.5 4.5-4.5h215.308a7.5 7.5 0 1 0 0-15H109.01c-10.752 0-19.5 8.748-19.5 19.5v23.54H37.5C16.822 43.04 0 59.862 0 80.54v282.42c0 20.678 16.822 37.5 37.5 37.5h175.384l-5.712 42.455h-8.357a15.55 15.55 0 0 0-14.937 11.357l-10.562 38.085c-1.307 4.706-.359 9.636 2.597 13.524a15.38 15.38 0 0 0 12.339 6.118h135.496a15.38 15.38 0 0 0 14.937-19.641l-10.563-38.085c-1.854-6.688-7.995-11.358-14.937-11.358h-8.357l-5.712-42.455H474.5c20.678 0 37.5-16.822 37.5-37.5V80.54c0-20.678-16.822-37.5-37.5-37.5zm-52.01 45H467v252.42h-44.51zM97.01 290.23a7.5 7.5 0 0 0 7.5-7.5V75h302.98v265.46H104.51v-22.73a7.5 7.5 0 1 0-15 0v22.729H45V88.04h44.51v194.69a7.5 7.5 0 0 0 7.5 7.5zm216.176 167.685a.5.5 0 0 1 .481.364v.001l10.563 38.087c.021.078.065.238-.084.436s-.317.197-.398.197H188.252c-.081 0-.248 0-.398-.197s-.105-.357-.083-.437l10.563-38.087a.5.5 0 0 1 .481-.364zm-90.88-15l5.712-42.455h55.963l5.712 42.455zM497 362.96c0 12.406-10.094 22.5-22.5 22.5h-437c-12.406 0-22.5-10.094-22.5-22.5V80.54c0-12.406 10.094-22.5 22.5-22.5h52.01v15H41.5c-6.341 0-11.5 5.159-11.5 11.5v259.42c0 6.341 5.159 11.5 11.5 11.5h429c6.341 0 11.5-5.159 11.5-11.5V84.54c0-6.341-5.159-11.5-11.5-11.5h-48.01v-15h52.01c12.406 0 22.5 10.094 22.5 22.5zM129.905 226.963c2.995.512 11.843.145 18.489.107a7.5 7.5 0 1 0-.041-15h-.043l-9.64.038v-41.564a7.5 7.5 0 1 0-15 0v49.026a7.5 7.5 0 0 0 6.235 7.393zm47.485.148h20.486a7.5 7.5 0 1 0 0-15H184.89v-9.31h11.476a7.5 7.5 0 1 0 0-15H184.89v-9.31h12.986a7.5 7.5 0 1 0 0-15H177.39a7.5 7.5 0 0 0-7.5 7.5v48.619a7.5 7.5 0 0 0 7.5 7.501z"/></svg>