<?xml version="1.0" encoding="utf-8"?><svg xmlns="http://www.w3.org/2000/svg" xmlns:xlink="http://www.w3.org/1999/xlink" viewBox="0 -19 512 512" xmlns:v="https://vecta.io/nano"><path d="M486.156 0H111.559c-14.25 0-25.84 11.594-25.84 25.844v39.23H25.844C11.594 65.074 0 76.668 0 90.918v332.539c0 27.637 22.395 50.145 49.996 50.344h.102c.09.004.172.012.262.012h265.309a7.5 7.5 0 0 0 7.5-7.5c0-4.141-3.359-7.5-7.5-7.5H86.184c8.98-9.098 14.535-21.59 14.535-35.355V248.07c0-4.141-3.359-7.5-7.5-7.5a7.5 7.5 0 0 0-7.5 7.5v175.387c0 19.43-15.758 35.246-35.168 35.352-.062 0-.125-.008-.191-.008-19.497-.004-35.36-15.86-35.36-35.344V90.918a10.86 10.86 0 0 1 10.844-10.844h59.875V220.07a7.5 7.5 0 1 0 15 0V25.844c0-5.98 4.863-10.844 10.84-10.844h374.598C492.137 15 497 19.863 497 25.844v397.613c0 19.496-15.863 35.355-35.359 35.355H343.668a7.5 7.5 0 1 0 0 15h117.973c27.77 0 50.359-22.59 50.359-50.355V25.844C512 11.594 500.406 0 486.156 0zM164.32 299.262h102.863c9.785 0 17.746-7.961 17.746-17.746V178.652c0-9.785-7.961-17.746-17.746-17.746H164.32c-9.785 0-17.746 7.961-17.746 17.746v102.863c0 9.785 7.961 17.746 17.746 17.746zm-2.746-120.609a2.75 2.75 0 0 1 2.746-2.746h102.863a2.75 2.75 0 0 1 2.746 2.746v102.863c0 1.512-1.234 2.746-2.746 2.746H164.32a2.75 2.75 0 0 1-2.746-2.746zm0 0"/><path d="M312.191 175.906h139.199a7.5 7.5 0 1 0 0-15H312.191a7.5 7.5 0 1 0 0 15zm0 0"/><use xlink:href="#B"/><use xlink:href="#B" y="61.676"/><path d="M154.074 360.938H451.39a7.5 7.5 0 0 0 7.5-7.5c0-4.141-3.359-7.5-7.5-7.5H154.074c-4.141 0-7.5 3.359-7.5 7.5a7.5 7.5 0 0 0 7.5 7.5zm0 61.679H451.39a7.5 7.5 0 1 0 0-15H154.074a7.5 7.5 0 1 0 0 15zm-7.308-300.09v-79.25c0-1.629.773-2.871 2.32-3.723s3.422-1.285 5.617-1.285c2.934 0 5.168.531 6.719 1.59 1.543 1.059 3.254 3.34 5.129 6.836l23.566 45.551v-49.09c0-1.629.773-2.848 2.32-3.664s3.418-1.223 5.617-1.223 4.07.41 5.617 1.223 2.32 2.035 2.32 3.664v79.371c0 1.551-.797 2.77-2.383 3.664s-3.437 1.344-5.555 1.344c-4.316 0-7.371-1.668-9.16-5.008l-26.254-49.09v49.09c0 1.551-.793 2.77-2.379 3.664s-3.441 1.344-5.559 1.344c-2.195 0-4.07-.445-5.613-1.344-1.551-.895-2.324-2.113-2.324-3.664zm73.879 0v-79.25c0-1.547.691-2.766 2.078-3.664s3.008-1.344 4.883-1.344h43.473c1.625 0 2.871.695 3.723 2.078s1.285 2.973 1.285 4.762c0 1.953-.449 3.625-1.344 5.008s-2.121 2.074-3.664 2.074H236.52v24.422h18.563c1.543 0 2.766.633 3.664 1.895s1.344 2.746 1.344 4.457a7.36 7.36 0 0 1-1.285 4.215c-.855 1.266-2.094 1.891-3.723 1.891H236.52v24.547h34.559c1.543 0 2.766.691 3.664 2.074s1.344 3.055 1.344 5.008c0 1.789-.43 3.379-1.285 4.762s-2.098 2.074-3.723 2.074h-43.473c-1.875 0-3.5-.445-4.883-1.34s-2.078-2.117-2.078-3.668zm63.378-77.906c0-1.711 1.098-3.195 3.297-4.457s4.477-1.895 6.836-1.895c2.934 0 4.684 1.059 5.25 3.176l19.297 66.188 10.379-42.496c.73-2.934 3.336-4.398 7.813-4.398 4.398 0 6.961 1.465 7.695 4.398l10.379 42.496 19.293-66.187c.57-2.117 2.32-3.176 5.254-3.176 2.359 0 4.637.633 6.836 1.895s3.297 2.746 3.297 4.457a4.68 4.68 0 0 1-.242 1.465l-24.18 76.809c-1.223 3.586-4.684 5.375-10.379 5.375-2.441 0-4.641-.469-6.594-1.406s-3.137-2.258-3.543-3.969l-7.812-32.969-7.937 32.969c-.41 1.711-1.59 3.035-3.543 3.969s-4.152 1.406-6.594 1.406c-2.523 0-4.762-.469-6.715-1.406s-3.176-2.258-3.664-3.969l-24.18-76.809a4.57 4.57 0 0 1-.242-1.465zm109.657 68.871c0-1.871.711-3.766 2.137-5.68s3.031-2.867 4.824-2.867c1.055 0 2.258.508 3.602 1.523a41.95 41.95 0 0 1 3.906 3.359c1.261 1.222 3.074 2.348 5.438 3.363s4.965 1.52 7.813 1.52c3.91 0 7.164-.895 9.77-2.687s3.906-4.434 3.906-7.934c0-2.445-.711-4.621-2.137-6.535s-3.297-3.5-5.617-4.762-4.863-2.484-7.629-3.664-5.559-2.504-8.367-3.969-5.371-3.113-7.691-4.945-4.195-4.273-5.617-7.328-2.137-6.531-2.137-10.437c0-4.379.875-8.246 2.625-11.59s4.09-5.949 7.02-7.809 6.063-3.223 9.402-4.09 6.879-1.305 10.625-1.305c2.113 0 4.352.148 6.715.441s4.863.773 7.512 1.441 4.801 1.715 6.469 3.133 2.504 3.094 2.504 5.02c0 1.813-.57 3.688-1.707 5.625s-2.687 2.902-4.641 2.902c-.734 0-2.73-.773-5.984-2.32s-6.879-2.32-10.867-2.32c-4.398 0-7.797.836-10.195 2.504s-3.605 3.969-3.605 6.898c0 2.363.977 4.418 2.934 6.168s4.375 3.176 7.266 4.273 6.023 2.484 9.402 4.152 6.512 3.48 9.402 5.434 5.313 4.781 7.266 8.484 2.93 8.043 2.93 13.008c0 8.348-2.668 14.793-7.996 19.328-5.336 4.535-12.355 6.805-21.066 6.805-7.734 0-14.367-1.59-19.902-4.766-5.539-3.168-8.305-6.629-8.305-10.375zm0 0"/><defs ><path id="B" d="M312.191 237.586h139.199c4.141 0 7.5-3.359 7.5-7.5a7.5 7.5 0 0 0-7.5-7.5H312.191a7.5 7.5 0 0 0-7.5 7.5c0 4.141 3.359 7.5 7.5 7.5zm0 0"/></defs></svg>