<?xml version="1.0" encoding="utf-8"?><svg xmlns="http://www.w3.org/2000/svg" xmlns:xlink="http://www.w3.org/1999/xlink" viewBox="0 0 512 512" xmlns:v="https://vecta.io/nano"><path d="M350.688 496.97H66.121V126.245c0-4.151-3.365-7.515-7.515-7.515s-7.515 3.364-7.515 7.515v373.23c0 6.907 5.619 12.525 12.525 12.525h287.072c4.15 0 7.514-3.364 7.515-7.515s-3.365-7.515-7.515-7.515zM458.782 67.951L394.906 2.276C393.491.821 391.548 0 389.519 0H63.616C56.71 0 51.092 5.62 51.091 12.526v58.613c0 4.151 3.365 7.515 7.515 7.515s7.515-3.364 7.515-7.515V15.031h320.224l59.536 61.212V496.97h-42.59c-4.15 0-7.515 3.364-7.515 7.515s3.365 7.515 7.515 7.515h45.094a12.54 12.54 0 0 0 12.525-12.524V73.19a7.51 7.51 0 0 0-2.128-5.239z"/><path d="M458.781 67.951L394.905 2.276c-2.133-2.192-5.381-2.874-8.214-1.723s-4.687 3.904-4.687 6.963V73.19c0 4.151 3.365 7.515 7.515 7.515h63.876a7.51 7.51 0 0 0 6.922-4.591c1.175-2.782.57-5.999-1.536-8.163zm-61.747-2.276V26.019l38.569 39.656h-38.569zM290.78 39.899H109.714c-6.907 0-12.525 5.619-12.525 12.525v41.533c0 6.907 5.619 12.525 12.525 12.525H290.78c6.906 0 12.525-5.619 12.525-12.524V52.423c0-6.907-5.619-12.524-12.525-12.524zm-2.505 51.552H112.219V54.928h176.056v36.523zm-116.028 54.36a7.52 7.52 0 0 0-10.53 1.436l-33.203 43.688-9.972-8.726c-3.123-2.734-7.87-2.417-10.604.707s-2.416 7.871.707 10.604l16.031 14.027a7.52 7.52 0 0 0 4.948 1.859c.252 0 .505-.013.759-.037 2.072-.211 3.965-1.271 5.225-2.93l38.075-50.098c2.511-3.304 1.868-8.019-1.436-10.53z"/><use xlink:href="#B"/><use xlink:href="#C"/><use xlink:href="#D"/><path d="M172.247 248.014c-3.303-2.51-8.018-1.869-10.53 1.436l-33.203 43.688-9.972-8.726c-3.123-2.733-7.87-2.416-10.604.707s-2.416 7.871.707 10.604l16.031 14.027a7.52 7.52 0 0 0 4.948 1.859c.252 0 .505-.013.759-.037 2.072-.211 3.965-1.271 5.225-2.93l38.075-50.098c2.511-3.304 1.868-8.017-1.436-10.53z"/><use xlink:href="#B" y="102.204"/><use xlink:href="#C" y="102.204"/><use xlink:href="#D" y="102.203"/><path d="M398.409 348.685H209.136c-4.15 0-7.515 3.364-7.515 7.515s3.365 7.515 7.515 7.515h189.273c4.15 0 7.514-3.364 7.515-7.515s-3.365-7.515-7.515-7.515z"/><use xlink:href="#C" y="204.408"/><use xlink:href="#D" y="204.407"/><path d="M158.681 348.685h-40.079c-6.907 0-12.525 5.619-12.525 12.525v40.078c0 6.907 5.619 12.525 12.525 12.525h40.079a12.54 12.54 0 0 0 12.525-12.524V361.21c0-6.907-5.619-12.525-12.525-12.525zm-2.504 50.099h-35.069v-35.069h35.069v35.069z"/><defs ><path id="B" d="M398.409 144.277H209.136c-4.15 0-7.515 3.364-7.515 7.515s3.365 7.515 7.515 7.515h189.273c4.15 0 7.515-3.364 7.515-7.515s-3.365-7.515-7.515-7.515z"/><path id="C" d="M332.021 169.326H209.136c-4.15 0-7.515 3.364-7.515 7.515s3.365 7.515 7.515 7.515h122.885c4.15 0 7.515-3.364 7.515-7.515s-3.365-7.515-7.515-7.515z"/><path id="D" d="M360.076 194.376h-150.94c-4.15 0-7.515 3.364-7.515 7.515s3.365 7.515 7.515 7.515h150.94c4.15 0 7.515-3.364 7.515-7.515s-3.365-7.515-7.515-7.515z"/></defs></svg>