<?xml version="1.0" encoding="utf-8"?><svg xmlns="http://www.w3.org/2000/svg" height="512" width="512" xmlns:v="https://vecta.io/nano"><path d="M480.177 152.136c0-16.694-6.501-32.39-18.306-44.195l-89.633-89.633C360.433 6.503 344.738.002 328.043.002L83.333 0c-28.402 0-51.51 23.107-51.51 51.51v23.84a7.5 7.5 0 1 0 15 0V51.51c0-20.132 16.378-36.51 36.51-36.51l235.417.002c13.559.052 24.574 11.101 24.574 24.677v45.67c0 28.397 23.107 51.5 51.51 51.5h45.67c13.604 0 24.67 11.071 24.67 24.68v298.96c0 20.132-16.374 36.51-36.5 36.51H83.333c-20.132 0-36.51-16.378-36.51-36.51V105.35a7.5 7.5 0 1 0-15 0v355.14c0 28.403 23.107 51.51 51.51 51.51h345.34c28.397 0 51.5-23.107 51.5-51.51zm-85.344-30.286c-20.132 0-36.51-16.374-36.51-36.5V39.68c0-5.88-1.295-11.459-3.599-16.483 2.45 1.67 4.765 3.576 6.908 5.719l89.633 89.633c2.14 2.14 4.044 4.453 5.713 6.9-5.022-2.303-10.598-3.598-16.475-3.598h-45.67zM103.847 297.392a7.5 7.5 0 0 0 7.5 7.5h289.309a7.5 7.5 0 1 0 0-15H111.347a7.5 7.5 0 0 0-7.5 7.5zm296.806 45.878h-40.971a7.5 7.5 0 1 0 0 15h40.971a7.5 7.5 0 1 0 0-15zm-289.301 0a7.5 7.5 0 1 0 0 15h218.351a7.5 7.5 0 1 0 0-15zm-.005 68.368h147.466a7.5 7.5 0 1 0 0-15H111.347a7.5 7.5 0 1 0 0 15zm91.094-160.452l6.823-17.915h45.535l6.753 17.894c1.133 3.003 3.987 4.854 7.018 4.854.88 0 1.775-.156 2.647-.485a7.5 7.5 0 0 0 4.368-9.665l-34.468-91.333-.081-.207c-1.487-3.613-4.972-5.946-8.877-5.946a9.57 9.57 0 0 0-8.885 5.965l-.067.17-34.784 91.329a7.5 7.5 0 0 0 4.339 9.678c3.87 1.474 8.204-.468 9.679-4.339zm29.695-77.967l17.002 45.052h-34.161zm-53.792-8.626a7.5 7.5 0 1 0 0-15h-37.27a7.5 7.5 0 0 0-7.5 7.5v91.955a7.5 7.5 0 1 0 15 0V209.7h26.809a7.5 7.5 0 1 0 0-15h-26.809v-30.107zm155.912-15.339c-29.675 0-53.816 24.142-53.816 53.816s24.142 53.817 53.816 53.817c12.325 0 23.688-4.174 32.771-11.171l8.6 8.6c1.465 1.465 3.384 2.197 5.304 2.197s3.839-.732 5.304-2.197a7.5 7.5 0 0 0 0-10.606l-8.698-8.698c6.616-8.941 10.536-19.991 10.536-31.942 0-29.674-24.142-53.816-53.817-53.816zm0 92.633c-21.403 0-38.816-17.413-38.816-38.817s17.413-38.816 38.816-38.816 38.816 17.413 38.816 38.816c0 7.807-2.325 15.077-6.307 21.171L356.6 214.075c-2.929-2.928-7.677-2.929-10.607 0a7.5 7.5 0 0 0 0 10.606l10.311 10.311a38.59 38.59 0 0 1-22.048 6.895z"/></svg>