<?xml version="1.0" encoding="utf-8"?><svg xmlns="http://www.w3.org/2000/svg" viewBox="0 0 512.003 512.003" xmlns:v="https://vecta.io/nano"><path d="M440.372 120.243a7.5 7.5 0 0 0-7.5 7.5v368.742c0 .285-.231.517-.517.517H79.646c-.285 0-.517-.231-.517-.517V15.519c0-.285.231-.517.517-.517h265.048v72.661c0 8.556 6.961 15.517 15.517 15.517h80.161a7.5 7.5 0 0 0 5.304-12.804L357.498 2.198a8.38 8.38 0 0 0-.192-.185c-.008-.008-.011-.011-.015-.014l-.015-.014-.015-.014C355.937.757 354.175.012 352.24 0h-.047H79.646C71.091.002 64.13 6.963 64.13 15.519v480.967c0 8.556 6.961 15.517 15.517 15.517h352.709c8.556 0 15.517-6.961 15.517-15.517V127.743c-.001-4.142-3.358-7.5-7.501-7.5zm-80.678-94.635l62.571 62.571h-62.054c-.285 0-.517-.231-.517-.517V25.608zM159.291 90.404V64.257c5.555 1.815 9.049 5.479 9.049 8.876a7.5 7.5 0 1 0 15 0c0-11.98-10.095-21.739-24.049-24.345v-1.206a7.5 7.5 0 1 0-15 0v1.206c-13.953 2.606-24.048 12.365-24.048 24.345 0 16.739 13.374 23.773 24.048 27.822v26.146c-5.555-1.815-9.048-5.479-9.048-8.876a7.5 7.5 0 1 0-15 0c0 11.979 10.095 21.739 24.048 24.345v1.207a7.5 7.5 0 1 0 15 0v-1.207c13.954-2.606 24.049-12.365 24.049-24.345 0-16.741-13.375-23.774-24.049-27.821zm-15-5.81c-7.518-3.68-9.048-6.892-9.048-11.46 0-3.397 3.493-7.062 9.048-8.876v20.336zm15 42.507v-20.336c7.519 3.679 9.049 6.891 9.049 11.46 0 3.397-3.493 7.062-9.049 8.876zm240.484 56.755a7.5 7.5 0 0 0-7.5-7.5H119.727a7.5 7.5 0 0 0-7.5 7.5v144.291a7.5 7.5 0 0 0 7.5 7.5h272.549a7.5 7.5 0 0 0 7.5-7.5V183.856h-.001zM256.518 320.648H127.227v-33.097h129.291v33.097zm0-48.097H127.227v-33.098h129.291v33.098zm0-48.098H127.227v-33.097h129.291v33.097zm64.128 96.195h-49.129v-33.097h49.129v33.097zm.001-48.097h-49.129v-33.098h49.129v33.098zm0-48.098h-49.129v-33.097h49.129v33.097zm64.128 96.195h-49.129v-33.097h49.129v33.097zm0-48.097h-49.129v-33.098h49.129v33.098zm0-48.098h-49.129v-33.097h49.129v33.097zM256.001 360.728c-26.236 0-47.581 21.344-47.581 47.581s21.345 47.58 47.581 47.58 47.581-21.345 47.581-47.58-21.345-47.581-47.581-47.581zm0 80.161c-17.965 0-32.581-14.615-32.581-32.58s14.616-32.581 32.581-32.581 32.581 14.616 32.581 32.581-14.616 32.58-32.581 32.58zm0-48.097c-8.556 0-15.517 6.961-15.517 15.517s6.961 15.516 15.517 15.516 15.517-6.96 15.517-15.516-6.961-15.517-15.517-15.517zm-72.146-8.016h-64.129a7.5 7.5 0 1 0 0 15h64.129a7.5 7.5 0 1 0 0-15zm0 32.065h-48.097a7.5 7.5 0 1 0 0 15h48.097a7.5 7.5 0 1 0 0-15zm200.404-40.081h-48.097c-8.556 0-15.516 6.961-15.516 15.517v32.064c0 8.556 6.96 15.516 15.516 15.516h48.097c8.556 0 15.517-6.96 15.517-15.516v-32.064a15.54 15.54 0 0 0-15.517-15.517zm.516 47.581c0 .284-.231.516-.517.516h-48.097c-.284 0-.516-.231-.516-.516v-32.064c0-.285.231-.517.516-.517h48.097c.285 0 .517.231.517.517v32.064zM296.08 56.115h-16.029a7.5 7.5 0 1 0 0 15h16.029a7.5 7.5 0 1 0 0-15zm-48.096 0H215.92a7.5 7.5 0 1 0 0 15h32.064a7.5 7.5 0 1 0 0-15zM320.13 88.18H215.92a7.5 7.5 0 1 0 0 15h104.21a7.5 7.5 0 1 0 0-15zm0 32.064h-16.032a7.5 7.5 0 1 0 0 15h16.032a7.5 7.5 0 1 0 0-15zm-48.097 0H215.92a7.5 7.5 0 1 0 0 15h56.113a7.5 7.5 0 1 0 0-15z"/></svg>