<?xml version="1.0" encoding="utf-8"?><svg xmlns="http://www.w3.org/2000/svg" xmlns:xlink="http://www.w3.org/1999/xlink" height="512" viewBox="0 0 24 24" width="512" xmlns:v="https://vecta.io/nano"><path d="M23.5 11.5c.28 0 .5.22.5.5s-.22.5-.5.5H23v-1z"/><path d="M12.5 11.5H23v1H12.5z"/><path d="M21.5 24H12c.28 0 .5-.22.5-.5V23h9a1.5 1.5 0 0 0 1.5-1.5v-9h.5c.28 0 .5-.22.5-.5v9.5a2.5 2.5 0 0 1-2.5 2.5z"/><path d="M24 2.5V12c0-.28-.22-.5-.5-.5H23v-9A1.5 1.5 0 0 0 21.5 1h-9V.5c0-.28-.22-.5-.5-.5h9.5A2.5 2.5 0 0 1 24 2.5z"/><use xlink:href="#B"/><use xlink:href="#B" y="10"/><use xlink:href="#B" y="13"/><path d="M12.5 23v.5c0 .28-.22.5-.5.5s-.5-.22-.5-.5V23z"/><path d="M11.5 12.5h1V23h-1z"/><path d="m11.5 11.5h1v1h-1z"/><path d="m11.5 1h1v10.5h-1z"/><path d="M12.5.5V1h-1V.5c0-.28.22-.5.5-.5s.5.22.5.5zM1 11.5h10.5v1H1zM8 6c.28 0 .5.22.5.5S8.28 7 8 7H6.5V6zm-.15 13.15c.2.19.2.51 0 .7a.47.47 0 0 1-.35.15.47.47 0 0 1-.35-.15L6 18.7l.7-.7z"/><path d="M7.15 16.15c.19-.2.51-.2.7 0 .2.19.2.51 0 .7L6.7 18l-.7-.7z"/><path d="M5.297 17.999l.7-.7.7.7-.7.7zM6.5 7v1.5c0 .28-.22.5-.5.5s-.5-.22-.5-.5V7z"/><path d="m5.5 6h1v1h-1z"/><path d="M6.5 4.5V6h-1V4.5c0-.28.22-.5.5-.5s.5.22.5.5zM6 17.3l-.7.7-1.15-1.15c-.2-.19-.2-.51 0-.7.19-.2.51-.2.7 0z"/><path d="M5.5 6v1H4c-.28 0-.5-.22-.5-.5S3.72 6 4 6zm-.65 13.85a.47.47 0 0 1-.35.15.47.47 0 0 1-.35-.15c-.2-.19-.2-.51 0-.7L5.3 18l.7.7zM1 11.5v1H.5c-.28 0-.5-.22-.5-.5s.22-.5.5-.5z"/><path d="M0 2.5A2.5 2.5 0 0 1 2.5 0H12c-.28 0-.5.22-.5.5V1h-9A1.5 1.5 0 0 0 1 2.5v9H.5c-.28 0-.5.22-.5.5z"/><path d="M1 21.5A1.5 1.5 0 0 0 2.5 23h9v.5c0 .28.22.5.5.5H2.5A2.5 2.5 0 0 1 0 21.5V12c0 .28.22.5.5.5H1z"/><defs ><path id="B" d="m20 6c.28 0 .5.22.5.5s-.22.5-.5.5h-4c-.28 0-.5-.22-.5-.5s.22-.5.5-.5z"/></defs></svg>