<?xml version="1.0" encoding="utf-8"?><svg xmlns="http://www.w3.org/2000/svg" xmlns:xlink="http://www.w3.org/1999/xlink" viewBox="0 0 512 512" xmlns:v="https://vecta.io/nano"><path d="M379.237 180.014h-1.526L356.6 129.633v-.252l3.172-.07c4.138-.183 7.345-3.685 7.163-7.823s-3.668-7.319-7.823-7.163c-.836.038-1.675.047-2.512.056v-2.88a7.5 7.5 0 1 0-15 0v1.509c-30.416-6.063-30.467-22.988-52.713-22.988h-1.327a23.53 23.53 0 0 0-14.641-14.548v-4.773a7.5 7.5 0 1 0-15 0v4.773c-6.847 2.321-12.281 7.725-14.643 14.554-.646.106-12.343-1.115-22.844 7.813-6.68 5.68-16.875 12.179-30.646 15.056v-1.39a7.5 7.5 0 1 0-15 0v2.906c-4.054.101-7.311 3.412-7.311 7.49s3.256 7.389 7.311 7.49v.244l-21.109 50.377c-.599.097-5.041-.684-8.581 3.009-3.601 3.754-2.919 8.246-2.005 14.188 1.345 7.938 6.394 15.119 14.534 19.048 3.738 1.783 6.615 6.14 13.738 6.14h21.846c5.198 0 8.882-2.802 9.567-3.363 2.063-1.691 2.454-1.894 4.336-2.858 10.596-5.062 14.565-14.415 15.066-25.995.138-5.929-4.483-10.168-9.756-10.168h-1.527l-21.109-50.377v-1.504c19.474-3.383 33.214-12.787 40.362-18.865 5.741-4.881 12.596-4.173 13.036-4.24a23.53 23.53 0 0 0 14.734 14.822v77.931c-14.978 1.006-24.755 16.358-19.24 30.372-9.352 2.649-16.226 11.257-16.226 21.445 0 12.292 10.001 22.292 22.292 22.292h41.988c12.292 0 22.291-10.001 22.291-22.292 0-10.398-7.156-19.153-16.802-21.605 5.383-13.995-4.405-29.211-19.303-30.212v-77.931c6.938-2.352 12.426-7.87 14.736-14.828.531.082 7.119-.707 12.939 4.24 7.227 6.145 21.192 15.689 41.006 18.976v1.396l-21.111 50.381c-.599.097-5.039-.684-8.58 3.009-3.095 3.227-2.718 7.256-2.701 7.156 0 12.945 6.091 21.667 15.23 26.079 3.857 1.84 6.647 6.14 13.738 6.14h21.847c6.804-.003 9.143-3.754 13.922-6.232 10.67-5.106 14.607-14.438 15.052-25.996.226-5.509-4.188-10.158-9.759-10.158zm-207.956 27.398l-.001-.002a6.09 6.09 0 0 1 .219.188l-.218-.186zm21.977.024c-.038.03-.055-.035-.052-.038-32.097-.073-16.366 1.322-29.233-4.733-3.132-1.479-5.368-4.322-6.036-7.648h48.695c-1.437 7.15-7.016 6.978-13.374 12.419zm1.372-27.422h-24.69l12.346-29.462 12.344 29.462zm99.392 69.583a7.3 7.3 0 0 1-7.29 7.291h-41.987a7.3 7.3 0 0 1-7.291-7.291 7.3 7.3 0 0 1 7.291-7.29h41.987a7.3 7.3 0 0 1 7.29 7.29zm-15.32-29.583a7.3 7.3 0 0 1-7.29 7.291h-11.987a7.3 7.3 0 0 1-7.29-7.291 7.3 7.3 0 0 1 7.29-7.29h11.987a7.3 7.3 0 0 1 7.29 7.29zm-13.285-113.928a8.44 8.44 0 0 1-8.427-8.427 8.44 8.44 0 0 1 8.427-8.426c4.648 0 8.427 3.779 8.427 8.426a8.44 8.44 0 0 1-8.427 8.427zm83.682 44.461l12.348 29.467h-24.695l12.347-29.467zm-11.001 56.865l.209.18c.001 0-.124-.106-.209-.18zm21.975.024c-.019.022-.055-.035-.055-.035-28.304-.069-18.799 1.246-27.062-3.604-3.633-1.972-7.156-3.563-8.205-8.782h48.696c-1.447 7.213-7.303 7.212-13.374 12.421z"/><use xlink:href="#B"/><use xlink:href="#B" y="31.5"/><use xlink:href="#B" y="63.001"/><path d="M465.466 364.311a7.5 7.5 0 0 0 7.5-7.5V25.059C472.967 11.241 461.725 0 447.908 0H81.848C58.074 0 39.033 19.685 39.033 42.43l.001 427.059c0 22.863 19.64 42.512 42.814 42.512h238.549a7.5 7.5 0 1 0 0-15c-.102 0-238.387-.203-238.549-.203-21.821 0-36.38-24.986-22.108-43.649 4.818-6.303 12.235-10.518 20.704-10.969 1.224-.062 29.586-.036 29.69-.036v31.112c0 8.271 9.149 13.309 16.142 8.87l17.074-10.847 16.818 10.685c7.115 4.511 16.397-.619 16.397-9.013v-30.809h243.544v54.856H355.4a7.5 7.5 0 1 0 0 15h90.855c14.729 0 26.712-11.983 26.712-26.712V391.81a7.5 7.5 0 1 0-15 0v23.653c0 5.23-3.458 9.669-8.207 11.15-2.829.882-351.238.533-357.991.526V93.718a7.5 7.5 0 1 0-15 0v333.728c-8.582 1.039-16.473 4.674-22.731 10.05.887-403.996-2.945-397.577 4.051-409.071 4.09-6.699 10.906-11.511 18.678-12.945v43.236a7.5 7.5 0 1 0 15 0V15.001h356.141c5.545 0 10.058 4.512 10.058 10.058v331.752a7.5 7.5 0 0 0 7.5 7.5zm-30.358 77.832h0c7.815-.534 14.458 1.437 22.856-2.693v45.839c0 6.457-5.253 11.711-11.711 11.711h-11.146v-54.857zm-309.974 0h36.43v22.936c-9.889-5.754-12.32-9.229-18.214-9.229-5.903 0-8.349 3.485-18.216 9.228v-22.935z"/><defs ><path id="B" d="M336.055 303.81H194.78a7.5 7.5 0 1 0 0 15h141.277a7.5 7.5 0 1 0-.002-15z"/></defs></svg>