<?xml version="1.0" encoding="utf-8"?><svg xmlns="http://www.w3.org/2000/svg" height="634.667" viewBox="-1 0 476 476.384" width="634.667" xmlns:v="https://vecta.io/nano"><path d="M469.113 335.199c-8.914-15.207-28.398-20.426-43.723-11.711l-68.125 39.313A32 32 0 0 0 328.191 344h-94.703l-29.52-9.84a119.77 119.77 0 0 0-37.945-6.16h-6.809c-21.75 0-43.094 5.914-61.742 17.105L85.977 352h-5.785a8 8 0 0 0-8-8h-64a8 8 0 0 0-8 8v112a8 8 0 0 0 8 8h64a8 8 0 0 0 8-8h60.25a56.31 56.31 0 0 1 6.543.383l95.367 11.203a117.75 117.75 0 0 0 13.832.797 120.79 120.79 0 0 0 60.184-16.062l141.023-81.391c9.953-5.676 16.07-16.273 16-27.73a32.26 32.26 0 0 0-4.277-16zM64.191 456h-48v-96h48zm385.199-90.93l-141.023 81.426c-19.43 11.152-41.922 15.781-64.176 13.215l-95.367-11.199a72.49 72.49 0 0 0-8.383-.512h-60.25v-80h8c1.453 0 2.875-.395 4.121-1.145l13.391-8c16.16-9.711 34.66-14.844 53.512-14.855h6.809a103.94 103.94 0 0 1 32.879 5.336l30.762 10.258a8.04 8.04 0 0 0 2.527.406h96c8.836 0 16 7.164 16 16s-7.164 16-16 16h-120v16h120a31.94 31.94 0 0 0 31.617-28.199l73.551-42.449a16 16 0 0 1 24 13.848c.043 5.723-3.004 11.023-7.969 13.871zM120.191 312h240c13.254 0 24-10.746 24-24s-10.746-24-24-24v-88c-.074-46.07-35.652-84.297-81.598-87.672a23.54 23.54 0 0 0-10.523-29.039L295.137 12a8 8 0 0 0-6.945-12h-96c-2.859-.004-5.508 1.516-6.937 3.992s-1.437 5.531-.008 8.008l27.043 47.32c-10.258 5.703-14.746 18.09-10.52 29.039-45.93 3.387-81.488 41.59-81.578 87.641v88c-13.254 0-24 10.746-24 24s10.746 24 24 24zm96-232a8 8 0 0 1 8-8h32a8 8 0 1 1 0 16h-32a8 8 0 0 1-8-8zm58.207-64L251.55 56h-22.719l-22.848-40zM120.191 280c8.836 0 16-7.164 16-16v-88c.043-39.746 32.254-71.957 72-72h64c39.746.043 71.957 32.254 72 72v88c0 8.836 7.164 16 16 16a8 8 0 1 1 0 16h-240a8 8 0 1 1 0-16zm0 0"/><path d="M240.191 224a8 8 0 0 1-8-8h-16c.043 10.133 6.445 19.148 16 22.527V256h16v-17.473a23.95 23.95 0 0 0-8-46.528 8 8 0 1 1 8-8h16c-.043-10.133-6.445-19.148-16-22.527V144h-16v17.473a23.94 23.94 0 0 0 8 46.527 8 8 0 1 1 0 16zm40-24h16v16h-16zm-96 0h16v16h-16zm0 0"/></svg>