<?xml version="1.0" encoding="utf-8"?><svg xmlns="http://www.w3.org/2000/svg" height="640" viewBox="-9 0 480 480" width="640" xmlns:v="https://vecta.io/nano"><path d="M64 72h32v16H64zm48 0h80v16h-80zm-48 32h128v16H64zm0 64h144v16H64zm0 0"/><path d="M224 168h32v16h-32zm48 0h32v16h-32zM64 200h240v16H64zm0 32h96v16H64zm0 0"/><path d="M461.602 93.09c-.551-2.051-1.891-3.797-3.73-4.859l-27.711-16c-1.844-1.066-4.039-1.352-6.098-.797A8.01 8.01 0 0 0 419.2 75.2l-12 20.801a16 16 0 0 0-21.848 5.855L368 131.871V40c-.027-22.082-17.918-39.973-40-40H40C17.918.027.027 17.918 0 40v400c.027 22.082 17.918 39.973 40 40h288c22.082-.027 39.973-17.918 40-40V291.863l86.641-150.062c4.418-7.652 1.797-17.437-5.855-21.855l12-20.801a8 8 0 0 0 .816-6.055zm-40.512 10.855l8-13.855 13.855 8-8 13.855zm-38.16 98.063l28-48.488 13.855 8-104 180.137-41.602-24 104-180.129 13.855 8-28 48.496zM287.473 359.36l-6.945-4-2.398-19.855 27.711 16zM296 16v52.688l-10.344-10.344c-3.125-3.121-8.187-3.121-11.312 0L264 68.688V16zm56 424c0 13.254-10.746 24-24 24H40c-13.254 0-24-10.746-24-24V40c0-13.254 10.746-24 24-24h208v72a8 8 0 0 0 4.938 7.391 8.01 8.01 0 0 0 8.719-1.734L280 75.313l18.344 18.344c2.289 2.285 5.73 2.973 8.719 1.734A8 8 0 0 0 312 88V16h16c13.254 0 24 10.746 24 24v119.586l-90.641 156.988c-.859 1.5-1.219 3.238-1.016 4.953l4.801 39.719a7.99 7.99 0 0 0 3.945 5.969l-12 20.801a8 8 0 0 0-.039 8.031 8.01 8.01 0 0 0 13.895-.031l12-20.801a8 8 0 0 0 7.145.434l36.797-15.719c1.594-.68 2.926-1.855 3.793-3.355l21.32-37zm80.801-292.344l-41.602-24 8-13.855 41.602 24zM216 389.121a31.72 31.72 0 0 0-15.465 3.664 18.46 18.46 0 0 1-17.07 0A31.5 31.5 0 0 0 168 389.121v16a16.28 16.28 0 0 1 8.52 2.086 34.39 34.39 0 0 0 30.93 0c5.352-2.789 11.727-2.789 17.078 0 4.762 2.516 10.086 3.781 15.473 3.672v-16a16.25 16.25 0 0 1-8.543-2.094A31.73 31.73 0 0 0 216 389.121zM168 320c3.367 0 6.379-2.105 7.523-5.273a8 8 0 0 0-2.395-8.871l-48-40a8 8 0 0 0-10.258 0l-48 40A8 8 0 0 0 72 320h8v48a8 8 0 0 0 8 8h64a8 8 0 0 0 8-8v-48zm-48-37.602L145.902 304H94.098zM144 360H96v-40h48zm0 0"/></svg>