<?xml version="1.0" encoding="utf-8"?><svg xmlns="http://www.w3.org/2000/svg" height="512" viewBox="0 0 24 24" width="512" xmlns:v="https://vecta.io/nano"><path d="M19.5 24h-15C3.122 24 2 22.878 2 21.5v-19C2 1.122 3.122 0 4.5 0h15C20.878 0 22 1.122 22 2.5v19c0 1.378-1.122 2.5-2.5 2.5zM4.5 1A1.5 1.5 0 0 0 3 2.5v19A1.5 1.5 0 0 0 4.5 23h15a1.5 1.5 0 0 0 1.5-1.5v-19A1.5 1.5 0 0 0 19.5 1zm13 7h-11A1.5 1.5 0 0 1 5 6.5v-2A1.5 1.5 0 0 1 6.5 3h11A1.5 1.5 0 0 1 19 4.5v2A1.5 1.5 0 0 1 17.5 8zm-11-4a.5.5 0 0 0-.5.5v2a.5.5 0 0 0 .5.5h11a.5.5 0 0 0 .5-.5v-2a.5.5 0 0 0-.5-.5zM8 14a.5.5 0 0 1-.5-.5v-3a.5.5 0 1 1 1 0v3a.5.5 0 0 1-.5.5z"/><path d="M9.5 12.5h-3a.5.5 0 1 1 0-1h3a.5.5 0 1 1 0 1zm8 0h-3a.5.5 0 1 1 0-1h3a.5.5 0 1 1 0 1zm0 4.5h-3a.5.5 0 1 1 0-1h3a.5.5 0 1 1 0 1zm0 3h-3a.5.5 0 1 1 0-1h3a.5.5 0 1 1 0 1zm-11 0a.5.5 0 0 1-.354-.853l3-3a.5.5 0 0 1 .707.707l-3 3A.5.5 0 0 1 6.5 20z"/><path d="M9.5 20a.5.5 0 0 1-.354-.146l-3-3a.5.5 0 0 1 .707-.707l3 3A.5.5 0 0 1 9.5 20z"/></svg>