<?xml version="1.0" encoding="utf-8"?><svg xmlns="http://www.w3.org/2000/svg" width="27.605" height="36.807" xmlns:v="https://vecta.io/nano"><path d="M3.944 0v32.425h23.661V7.887h-6.573c-.484 0-.876-.392-.876-.876V0zm17.965.411v5.724h5.655zM0 4.382v32.425h23.661v-2.629H2.191v-29.8zm7.326 6.134h.041q.041 0 .082 0h8.763c.313 0 .602.167.759.438s.157.605 0 .877-.446.438-.759.438H7.449a.88.88 0 0 1-.873-1.267.88.88 0 0 1 .75-.486zm0 4.82h.041q.041 0 .082 0H24.1c.313 0 .602.167.759.438s.157.605 0 .877-.446.438-.759.438H7.449a.88.88 0 0 1-.873-1.267.88.88 0 0 1 .75-.486zm0 4.82h.041q.041 0 .082 0H24.1c.313 0 .602.167.759.438s.157.605 0 .877-.446.438-.759.438H7.449a.88.88 0 0 1-.873-1.267.88.88 0 0 1 .75-.486zm0 4.82h.041q.041 0 .082 0H24.1c.313 0 .602.167.759.438s.157.605 0 .877-.446.438-.759.438H7.449a.88.88 0 0 1-.914-.817.88.88 0 0 1 .791-.936z" fill="#407bff"/></svg>