<?xml version="1.0" encoding="utf-8"?><svg xmlns="http://www.w3.org/2000/svg" width="37.234" height="34.978" xmlns:v="https://vecta.io/nano"><path d="M37.005 21.247L30.425 33.7a2.6 2.6 0 0 1-1.939 1.274H2.1a2.1 2.1 0 0 1-2.1-2.1V12.388a2.1 2.1 0 0 1 2.1-2.1h1.929v1.79H2.741c-.526 0-.953.427-.953.953v19.207c0 .253.1.495.279.674s.421.279.674.279h1.324L10.3 20.575c.3-.706.959-1.193 1.722-1.274h15.272l.005-5.076c1.007.088 1.78.929 1.784 1.94v3.136h7c.831.008 1.528.826.922 1.946zM5.248 26.841V1.725C5.249.774 6.019.003 6.97.002h13.794a.79.79 0 0 1 .581.255L25.8 5.1c.134.146.209.337.209.535v12.552h-1.442V6.719a.36.36 0 0 0-.36-.36h-3.413c-.399 0-.723-.324-.724-.723v-3.83a.36.36 0 0 0-.36-.36H6.971c-.152 0-.276.124-.276.276V25.26L5.588 27.5s-.334-.025-.34-.659zm16.27-21.928h2.149l-2.149-2.336v2.336zm.784 2.92H8.97a.89.89 0 1 0 0 1.78H22.3a.89.89 0 1 0 0-1.78zm.891 6.074a.89.89 0 0 0-.891-.89H8.97a.89.89 0 0 0-.796 1.343.89.89 0 0 0 .796.436H22.3a.89.89 0 0 0 .892-.889zM8.08 19.126a.89.89 0 0 0 .89.889h.32c.293-.896 1.037-1.57 1.957-1.774H8.97a.89.89 0 0 0-.89.885z" fill="#407bff"/></svg>