<?xml version="1.0" encoding="utf-8"?><svg xmlns="http://www.w3.org/2000/svg" xmlns:xlink="http://www.w3.org/1999/xlink" height="512" width="512" xmlns:v="https://vecta.io/nano"><path d="M378.575 0H77.99C64.128 0 52.852 11.277 52.852 25.139v9.57H40.506c-13.861 0-25.138 11.277-25.138 25.139v321.316a7.5 7.5 0 1 0 15 0V59.848c0-5.591 4.548-10.139 10.138-10.139h300.585c5.59 0 10.138 4.548 10.138 10.139v427.014c0 5.591-4.548 10.139-10.138 10.139H40.506c-5.59 0-10.138-4.548-10.138-10.139v-70.697a7.5 7.5 0 1 0-15 0v70.697c0 13.861 11.277 25.139 25.138 25.139h300.585c13.861 0 25.138-11.277 25.138-25.139v-9.57h12.345c13.861 0 25.138-11.277 25.138-25.139V120.489a7.5 7.5 0 1 0-15 0v331.663c0 5.591-4.548 10.139-10.138 10.139h-9.571V59.848c0-13.861-11.277-25.139-25.138-25.139H67.851v-9.57C67.852 19.548 72.399 15 77.99 15h300.585c5.59 0 10.138 4.548 10.138 10.139V85.49a7.5 7.5 0 1 0 15 0V25.139C403.713 11.277 392.436 0 378.575 0zm101.142 148.796h-40.013c-9.327 0-16.915 7.588-16.915 16.915v212.903c0 .145.014.286.022.429.004.078.005.156.012.234.053.6.178 1.178.363 1.729.02.058.043.116.064.174a7.7 7.7 0 0 0 .284.675c.017.035.028.073.046.108l24.61 49.306c2.398 4.805 6.705 7.674 11.522 7.674s9.124-2.869 11.521-7.673l24.61-49.307c.022-.043.035-.089.056-.132a7.47 7.47 0 0 0 .263-.624c.027-.073.055-.144.079-.217a7.41 7.41 0 0 0 .219-.789c.004-.019.011-.037.015-.056.058-.278.097-.563.123-.852.009-.098.01-.196.015-.294.007-.128.019-.255.019-.385V165.711c0-9.327-7.588-16.915-16.915-16.915zm-20.006 271.97l-17.295-34.651h34.591zm21.921-49.652H437.79V210.732h43.842zm0-175.382H437.79v-30.021a1.92 1.92 0 0 1 1.915-1.915h40.013a1.92 1.92 0 0 1 1.915 1.915v30.021zM58.218 456.258c0 8.547 6.953 15.5 15.5 15.5h41.333c8.547 0 15.5-6.953 15.5-15.5v-39.496l17.111-18.203c2.837-3.018 2.69-7.765-.328-10.602s-7.764-2.69-10.602.328l-12.987 13.816c-2.481-1.688-5.474-2.676-8.694-2.676H73.718c-8.547 0-15.5 6.953-15.5 15.5zm57.333-23.539v23.539a.5.5 0 0 1-.5.5H92.824c.295-.231.58-.479.841-.756zm-42.333-17.794a.5.5 0 0 1 .5-.5h38.443l-22.91 24.372-13.441-20.483a7.46 7.46 0 0 0-2.591-2.416v-.973zm0 26.782c9.497 14.472 9.039 14.02 10.351 15.051h-9.851a.5.5 0 0 1-.5-.5zm242.407-13.616H156.292a7.5 7.5 0 1 0 0 15h159.333a7.5 7.5 0 1 0 0-15zM75.718 242.911h132.959c9.649 0 17.5-7.851 17.5-17.5V92.451c0-9.649-7.851-17.5-17.5-17.5H75.718c-9.649 0-17.5 7.851-17.5 17.5v132.96c0 9.65 7.851 17.5 17.5 17.5zm-2.5-150.46c0-1.379 1.122-2.5 2.5-2.5h132.959c1.378 0 2.5 1.121 2.5 2.5v132.96c0 1.379-1.122 2.5-2.5 2.5H75.718c-1.378 0-2.5-1.121-2.5-2.5zM113 215.89c4.14 0 7.51-3.36 7.51-7.49v-16.2c.02-11.909 9.699-21.627 21.596-21.698.031 0 .061.002.092.002s.063-.002.094-.002c11.898.07 21.578 9.788 21.598 21.698v8.699H148a7.51 7.51 0 0 0-7.5 7.5 7.52 7.52 0 0 0 7.5 7.5c.01 0 .02 0 .02-.01h23.37c1.97 0 3.91-.8 5.3-2.189 1.4-1.4 2.2-3.33 2.2-5.301V192.2c0-9.811-3.82-19.021-10.75-25.95a37.12 37.12 0 0 0-4.153-3.583c7.617-6.291 12.48-15.803 12.48-26.43 0-18.896-15.373-34.27-34.269-34.27s-34.269 15.373-34.269 34.27c0 10.626 4.862 20.138 12.478 26.429a37.18 37.18 0 0 0-4.157 3.585c-6.93 6.93-10.74 16.14-10.74 25.95V208.4a7.58 7.58 0 0 0 2.19 5.301c1.4 1.389 3.33 2.189 5.3 2.189zm29.198-98.923c10.625 0 19.269 8.645 19.269 19.27 0 10.603-8.609 19.229-19.204 19.265-.021 0-.042-.001-.063-.001a1.5 1.5 0 0 0-.066.002c-10.595-.035-19.205-8.662-19.205-19.265 0-10.627 8.644-19.271 19.269-19.271z"/><use xlink:href="#B"/><use xlink:href="#B" y="42.521"/><use xlink:href="#B" y="87.874"/><use xlink:href="#C"/><use xlink:href="#C" y="42.52"/><use xlink:href="#C" y="85.04"/><defs ><path id="B" d="M249.337 126.567h66.288a7.5 7.5 0 1 0 0-15h-66.288a7.5 7.5 0 1 0 0 15z"/><path id="C" d="M65.718 286.865h249.907a7.5 7.5 0 1 0 0-15H65.718a7.5 7.5 0 1 0 0 15z"/></defs></svg>