<?xml version="1.0" encoding="utf-8"?><svg xmlns="http://www.w3.org/2000/svg" height="512" width="512" xmlns:v="https://vecta.io/nano"><path d="M500.099 115.853a7.5 7.5 0 0 0-4.456-3.624l-24.951-7.442 4.484-14.996a16.23 16.23 0 0 0-1.264-12.494 16.49 16.49 0 0 0-3.063-4.039l8.314-27.79c4.366-14.685-4.014-30.183-18.668-34.542-7.103-2.126-14.624-1.35-21.174 2.188-6.54 3.534-11.303 9.385-13.408 16.464l-8.315 27.791c-5.417 1.017-10.136 4.722-12.237 10.079l-64.33-61.272-1.126-1.077c-1.346-1.294-2.611-2.494-4.073-3.41-.065-.045-.131-.089-.198-.132l-.079-.048a7.43 7.43 0 0 0-1.875-.855C332.553.251 331.295 0 329.79 0H25.202C17.371 0 11 6.368 11 14.195v214.613a7.5 7.5 0 1 0 15 0V15h298.043l-.049 43.31c0 19.012 15.466 34.479 34.477 34.479h39.242l-30.837 103.119a7.5 7.5 0 0 0 5.037 9.334c3.97 1.191 8.147-1.068 9.334-5.037l33.634-112.47a8.04 8.04 0 0 0 .168-.56l4.226-14.132c.207-.697 1.027-1.118 1.74-.908l38.888 11.607c.436.129.678.435.803.668a1.35 1.35 0 0 1 .107 1.057l-6.629 22.169c-.005.017-.013.033-.018.05s-.007.034-.012.05L372.372 381.24l-13.571-4.048-27.969-8.344 40.502-135.422a7.5 7.5 0 1 0-14.371-4.299L314.31 371.739c-.013.044-.02.089-.033.134-.025.089-.044.179-.066.269-.045.189-.084.379-.114.569l-.041.285a7.27 7.27 0 0 0-.047.625c-.003.075-.009.148-.01.223a7.37 7.37 0 0 0 .042.853c.001.009 0 .018.001.027l4.147 37.002 2.966 26.194c-2.842-1.863-4.977-5.107-7.54-9.289-3.148-5.136-7.461-12.168-15.719-10.617-6.937 1.338-10.199 7.135-13.354 12.74-1.637 2.908-3.33 5.916-5.689 8.91-1.744 2.218-2.921 2.848-3.299 2.87-.302.025-2.046-.142-6.962-5.033-12.863-12.763-22.868-4.056-27.676.126-1.795 1.563-3.83 3.332-5.167 3.573-1.265.214-3.569-1.074-6.189-3.478a7.5 7.5 0 0 0-10.597.46c-2.799 3.053-2.594 7.797.459 10.597 15.351 14.077 26.15 4.681 31.34.164 1.268-1.103 3.39-2.949 4.117-3.085.01.001 1.027.186 3.141 2.283 4.698 4.676 10.422 9.395 17.48 9.395.319 0 .641-.01.965-.029 5.185-.314 9.956-3.198 14.176-8.563 3.075-3.902 5.238-7.745 6.976-10.833.623-1.105 1.366-2.428 2.048-3.515l1.165 1.876c4.212 6.867 11.992 19.535 29.287 18.09.03 0 .062.007.092.007 1.114 0 2.104-.258 2.973-.645.128-.054.25-.116.374-.177.025-.013.051-.025.076-.038.365-.185.712-.396 1.037-.635 1.063-.745 1.857-1.604 2.373-2.164a6.82 6.82 0 0 0 .25-.286l45.889-55.262c.068-.082.123-.173.188-.257a8.55 8.55 0 0 0 .239-.327c.158-.233.3-.473.43-.72.039-.075.085-.144.122-.22a7.44 7.44 0 0 0 .403-1.031c.01-.031.025-.057.034-.088l21.095-70.549V497H26V263.476a7.5 7.5 0 1 0-15 0v234.301C11 505.619 17.371 512 25.202 512h381.261c7.847 0 14.23-6.381 14.23-14.224V272.003l45.703-152.845 17.769 5.3-30.478 101.918a7.5 7.5 0 0 0 5.037 9.334 7.51 7.51 0 0 0 2.152.316c3.229 0 6.21-2.102 7.183-5.354l32.628-109.108a7.5 7.5 0 0 0-.588-5.711zm-59.811-81.988c.965-3.245 3.154-5.928 6.165-7.554 3.02-1.633 6.479-1.992 9.753-1.013a12.79 12.79 0 0 1 8.584 15.882L457 67.22l-24.502-7.313zM338.994 58.318l.037-33.338 55.439 52.808h-36c-10.739 0-19.476-8.738-19.476-19.47zm-3.689 371.218l-5.091-45.22 34.174 10.195zM105.932 202.453a7.5 7.5 0 0 0 7.5 7.5h203.637a7.5 7.5 0 1 0 0-15H113.432a7.5 7.5 0 0 0-7.5 7.5zm7.5 65.799h191.227a7.5 7.5 0 1 0 0-15H113.432a7.5 7.5 0 1 0 0 15zm0 58.299h176.432a7.5 7.5 0 1 0 0-15H113.432a7.5 7.5 0 1 0 0 15zm0 58.299h120.83a7.5 7.5 0 1 0 0-15h-120.83a7.5 7.5 0 1 0 0 15zm179.782-232.543c6.954 0 12.612-5.655 12.612-12.606V109.46c0-6.951-5.658-12.606-12.612-12.606H128.17c-6.954 0-12.611 5.655-12.611 12.606v30.24c0 6.951 5.657 12.606 12.611 12.606h165.044zm-162.655-40.454h160.268v25.454H130.559z"/></svg>