<?xml version="1.0" encoding="utf-8"?><svg xmlns="http://www.w3.org/2000/svg" height="512" width="512" xmlns:v="https://vecta.io/nano"><circle cx="216.013" cy="336" r="10"/><path d="M40.013 136v40a10 10 0 0 0 10 10h289c5.522 0 10-4.477 10-10v-40c0-5.523-4.478-10-10-10h-289a10 10 0 0 0-10 10zm106 10h183v20h-183zm-86 0h66v20h-66zm-10 80h289c5.522 0 10-4.477 10-10s-4.478-10-10-10h-289a10 10 0 1 0 0 20zm0 40h289c5.522 0 10-4.477 10-10s-4.478-10-10-10h-289a10 10 0 1 0 0 20zm0 40h166a10 10 0 1 0 0-20h-166a10 10 0 1 0 0 20zm0 40h126a10 10 0 1 0 0-20h-126a10 10 0 1 0 0 20zm86 80h51.006c4.646 22.795 24.847 40 48.994 40 27.57 0 50-22.43 50-50s-22.43-50-50-50c-24.146 0-44.348 17.205-48.994 40h-51.006a10 10 0 1 0 0 20zm100-20h-28.28c4.128-11.639 15.243-20 28.28-20 16.542 0 30 13.458 30 30s-13.458 30-30 30c-13.036 0-24.152-8.361-28.28-20h28.28c5.522 0 10-4.477 10-10a10 10 0 0 0-10-10zm103-326c5.522 0 10-4.477 10-10s-4.478-10-10-10h-20c-5.522 0-10 4.477-10 10s4.478 10 10 10zm-60 0c5.522 0 10-4.477 10-10s-4.478-10-10-10h-20c-5.522 0-10 4.477-10 10s4.478 10 10 10zm-60 0a10 10 0 1 0 0-20h-20a10 10 0 1 0 0 20z"/><circle cx="196.013" cy="502" r="10"/><path d="M10.013 512h141a10 10 0 1 0 0-20h-131V100h70a10 10 0 0 0 10-10V20h269v282.652c-4.536 5.367-8.772 10.079-12.437 13.839l-21.2-21.2c-19.535-19.548-51.173-19.557-70.715-.002l-14.14 14.14c-3.905 3.905-3.905 10.237 0 14.142l118.491 118.491V492h-128a10 10 0 1 0 0 20h138c5.522 0 10-4.477 10-10v-39.938l2.929 2.929c3.905 3.902 10.238 3.905 14.143 0l14.14-14.14c19.538-19.538 19.542-51.171 0-70.712l-21.197-21.198c18.969-18.483 60.694-49.184 82.617-58.732 30.772-13.395 41.876-55.234 15.621-81.489-26.057-26.07-67.71-15.477-81.356 15.383-5.118 11.566-15.721 27.828-26.896 43.067V10c0-5.523-4.478-10-10-10h-289a10.11 10.11 0 0 0-7.071 2.929l-80 80A10.05 10.05 0 0 0 .013 90v412a10 10 0 0 0 10 10zm396.068-117.719c11.723 11.722 11.725 30.703 0 42.428l-7.068 7.069L271.735 316.5l7.071-7.071c11.722-11.728 30.697-11.734 42.426.002zm-19.23-81.778c17.33-20.901 38.692-50.747 47.348-70.309 7.773-17.577 32.476-25.787 48.923-9.333 16.454 16.454 8.095 41.369-9.462 49.011-24.883 10.838-68.192 42.8-88.776 62.926l-14.165-14.165c4.741-4.851 10.28-11.07 16.132-18.13zM80.013 34.142V80H34.155z"/></svg>