<?xml version="1.0" encoding="utf-8"?>
<!-- Generator: Adobe Illustrator 18.1.1, SVG Export Plug-In . SVG Version: 6.00 Build 0)  -->
<svg version="1.1" id="Layer_1" xmlns="http://www.w3.org/2000/svg" xmlns:xlink="http://www.w3.org/1999/xlink" x="0px" y="0px"
	 viewBox="0 0 250 100" enable-background="new 0 0 250 100" xml:space="preserve">
<path fill-rule="evenodd" clip-rule="evenodd" fill="#FFFFFF" d="M244.1,33.5c-14.6,0-29.2,0-43.8,0c-1,0-2,0-3,0
	c-14.6,0-29.2,0-43.8,0c0,0,0,0,0.1,0.1c-1.1,0-2.1,0-3.2,0c-0.5-1.3-1.1-2.6-1.6-3.9c0.1-0.6,0.4-1.5,1-2.6
	c0.6-1.1,1.3-2.1,1.9-3.2c0.6-0.8,1.3-1.6,1.9-2.5c0.1-0.3,0.8-0.8,2-1.6c1.3-0.9,2.6-1.5,4-1.7c1.5-0.3,3-0.5,4.4-0.5
	c1.1,0.1,2.3,0.2,3.4,0.3c1.2,0.2,3.1,0.7,5.5,1.7c1.2,0.4,2.4,0.9,3.3,1.5c0.9,0.6,1.8,1.2,2.5,1.9c2.4,2,4.8,3.9,7.2,5.9
	c-0.3-1-0.7-2-1-3c-0.5-0.6-1-1.2-1.5-1.8c-1.2-1.2-2.3-2.3-3.3-3.2c-1-0.9-1.9-1.6-2.7-2.1c-0.5-0.4-1-0.8-1.6-1.1
	c-0.6-0.3-1.2-0.6-1.8-0.9c-1.2-0.6-2.5-1.2-3.7-1.8c-2-0.9-3.8-1.5-5.5-1.9c-1.7-0.3-3.3-0.5-4.8-0.5c-2.2,0-4.1,0.4-5.6,1.1
	c-1.4,0.8-2.7,1.4-3.7,2.1c-1,0.6-1.8,1.2-2.3,1.7c-0.4,0.4-0.9,1.1-1.5,2.1c-0.8,1.3-1.6,2.6-2.3,3.9c-0.2,0.6-0.4,1.1-0.6,1.7
	c-0.2,0.6-0.3,1.3-0.3,2.2c0,1,0.2,1.7,0.6,2.1c1.2,1.5,2.5,2.9,3.8,4.3c-2.7,0-5.4,0-8.1,0c-0.9,0-1.9,0-2.8,0
	c-13.4,0-26.7,0-40.1,0c1.4,1.6,2.8,3.1,4.1,4.7c1.4,0,2.9,0,4.3,0c0,8.8,0,17.6,0,26.3c1.9,2.1,3.8,4.2,5.7,6.4
	c0.4-1.1,0.9-2.2,1.5-3.3c0.6-1.2,1.3-2.3,2.2-3.5c0.6-1,1.4-2,2.2-3c0.9-1,1.8-2,2.9-3c0.6-0.7,1.2-1.2,1.7-1.6
	c0.7-0.4,1.4-0.8,2-1.3c0.8-0.6,1.6-1,2.4-1.3c0.7-0.3,1.4-0.6,2.1-0.9c-0.4,1.7-0.8,3.4-1.2,5.2c-0.1,0.8-0.2,1.5-0.3,2.3
	c0,0.8-0.1,1.6-0.1,2.4c0,0.6,0,1.3,0,1.9c0,0.6,0.1,1.3,0.1,2c0.2,1.8,0.3,3.7,0.5,5.5c0.2,1.3,0.4,2.6,0.7,3.9
	c0.3,1.1,0.6,2.1,0.9,3.1c0.5,1.6,0.9,3.1,1.4,4.7c1,0.4,2,0.8,3,1.2c-0.2-0.8-0.5-1.5-0.8-2.3c-0.2-0.8-0.3-1.5-0.5-2.3
	c-0.2-0.8-0.3-1.6-0.5-2.4c0-0.5,0-1.1-0.1-1.6c-0.1-0.5-0.2-1-0.2-1.5c-0.1-0.6-0.1-1.3-0.2-2c0.1-1.6,0.1-3.3,0.2-4.9
	c0.1-1.1,0.2-2.1,0.3-3.2c0.5-3.2,1.5-6.6,2.9-10.3c0.7-1.6,1.4-3.2,2.1-4.8c-2.4-2-4.9-4-7.3-6c-1.9,0.9-3.8,1.8-5.7,2.7
	c-1,0.7-2.1,1.4-3.1,2.1c-1,0.7-1.9,1.4-2.8,2.1c-1.9,1.8-3.8,3.6-5.7,5.4c-0.6,0.5-1.2,1-1.8,1.5c0-6.5,0-13,0-19.4
	c10.4,0,20.9,0,31.3,0c1,0,1.9,0,2.9,0c1.1,0,2.2,0,3.3,0c0,14.5,0,28.9-0.1,43.4c1.4,1.4,2.9,2.7,4.3,4.1c0-15.8,0-31.7,0-47.5
	c2,0,3.9-0.1,5.9-0.1c0,0,0.1,0.1,0.1,0.1c11,0,21.9,0,32.9,0c0,4.2,0,8.4,0,12.7c-0.4-0.9-0.9-1.9-1.3-2.8
	c-0.2-0.4-0.5-0.8-0.8-1.2c-0.5-0.8-1.1-1.6-1.6-2.4c-1-1.1-2.3-1.6-3.9-1.6c-0.6,0.1-1.2,0.4-1.9,0.9c-0.7,0.5-1.3,1-1.8,1.6
	c-0.5,0.6-1,1.2-1.2,1.7c-0.3,0.6-0.4,0.9-0.2,1.2c-0.5-0.7-1-1.4-1.5-2.1c-0.7-0.7-1.5-1.3-2.2-2c-1.8-1.1-3.8-1.6-5.7-1.6
	c-1,0-2,0.2-3,0.7c-1,0.5-1.9,1.2-2.7,2c-0.8,0.9-1.5,1.9-2.1,3.1c-0.6,1.2-1,2.6-1.2,4.1c-0.1,1-0.2,2-0.3,3c0,2.4,0.5,4.5,1.3,6.4
	c1.2,2,2.7,3.5,4.2,4.6c0.7,0.4,1.6,0.8,2.8,1.2c1.2,0.4,2.3,0.6,3.5,0.6c1.5,0,2.9-0.4,4-1.1c1.1-0.7,2-1.8,2.5-3.3
	c0.1-0.3,0.1-0.6,0.2-0.9c-0.1-0.6-0.2-1.3-0.3-1.8c-0.1-0.6-0.3-1.3-0.6-2.3c-1-2.4-2.5-3.5-4.4-3.5c-1.1,0-2.2,0.5-3.2,1.5
	c-1,1-1.5,2.1-1.5,3.4c0,1.1,0.4,2.2,1.2,3.6c-1.6-0.3-2.9-0.9-4-2c-1.1-1.2-1.6-2.6-1.6-4.3c0.1-0.7,0.2-1.3,0.2-2
	c0.5-2.1,1.5-3.7,2.8-4.8c1.3-1.1,2.8-1.6,4.5-1.6c0.6,0.1,1.2,0.2,1.8,0.3c2.2,0.6,3.6,1.3,4.4,2.2c0.8,0.7,1.5,1.9,2.3,3.6
	c0.1,0.2,0.2,0.5,0.3,0.7c0.2,0.5,0.4,1,0.6,1.5c0.6-0.3,1.2-0.5,1.8-0.7c-0.1-0.8-0.2-1.5-0.3-2.3c0-0.6,0-1.2,0.1-1.8
	c0.2-0.5,0.3-1,0.5-1.5c0.7-1.2,1.5-1.7,2.2-1.7c1,0,2.1,0.3,3.1,1c0.2,0.2,0.4,0.3,0.6,0.4c0.7,0.6,1.2,1.3,1.5,2.2
	c0.4,0.9,0.7,1.6,0.7,2.3c0,8.5,0,17,0,25.5c1.5,1.5,3,2.9,4.4,4.3c0-15.7,0-31.4,0-47.1c2.2,0,4.5,0,6.7,0c1,0,2,0,3,0
	c9.9,0,19.9,0,29.8,0c0,4.2,0,8.4,0,12.7c-0.4-0.9-0.9-1.9-1.3-2.8c-0.2-0.4-0.5-0.8-0.8-1.2c-0.5-0.8-1.1-1.6-1.6-2.4
	c-1-1.1-2.3-1.6-3.9-1.6c-0.6,0.1-1.2,0.4-1.9,0.9c-0.7,0.5-1.3,1-1.8,1.6c-0.5,0.6-1,1.2-1.2,1.7c-0.3,0.6-0.4,0.9-0.2,1.2
	c-0.5-0.7-1-1.4-1.5-2.1c-0.7-0.7-1.5-1.3-2.2-2c-1.8-1.1-3.8-1.6-5.7-1.6c-1,0-2,0.2-3,0.7c-1,0.5-1.9,1.2-2.7,2
	c-0.8,0.9-1.5,1.9-2.1,3.1c-0.6,1.2-1,2.6-1.2,4.1c-0.1,1-0.2,2-0.3,3c0,2.4,0.5,4.5,1.3,6.4c1.2,2,2.7,3.5,4.2,4.6
	c0.7,0.4,1.6,0.8,2.8,1.2c1.2,0.4,2.3,0.6,3.5,0.6c1.5,0,2.9-0.4,4-1.1c1.1-0.7,2-1.8,2.5-3.3c0.1-0.3,0.1-0.6,0.2-0.9
	c-0.1-0.6-0.2-1.3-0.3-1.8c-0.1-0.6-0.4-1.3-0.6-2.3c-1-2.4-2.5-3.5-4.4-3.5c-1.1,0-2.2,0.5-3.2,1.5c-1,1-1.5,2.1-1.5,3.4
	c0,1.1,0.4,2.2,1.2,3.6c-1.6-0.3-2.9-0.9-4-2c-1.1-1.2-1.6-2.6-1.6-4.3c0.1-0.7,0.2-1.3,0.2-2c0.5-2.1,1.5-3.7,2.8-4.8
	c1.3-1.1,2.8-1.6,4.5-1.6c0.6,0.1,1.2,0.2,1.8,0.3c2.2,0.6,3.6,1.3,4.4,2.2c0.8,0.7,1.5,1.9,2.3,3.6c0.1,0.2,0.2,0.5,0.3,0.7
	c0.2,0.5,0.4,1,0.6,1.5c0.6-0.3,1.2-0.5,1.8-0.7c-0.1-0.8-0.2-1.5-0.3-2.3c0-0.6,0-1.2,0.1-1.8c0.2-0.5,0.3-1,0.5-1.5
	c0.7-1.2,1.5-1.7,2.2-1.7c1,0,2.1,0.3,3.1,1c0.2,0.2,0.4,0.3,0.6,0.4c0.7,0.6,1.2,1.3,1.5,2.2c0.4,0.9,0.7,1.6,0.7,2.3
	c0,8.5,0,17,0,25.5c1.5,1.5,3,2.9,4.4,4.3c0-15.7,0-31.4,0-47.1c3.2,0,6.5,0,9.7,0C247.1,36.6,245.6,35.1,244.1,33.5z"/>
<path fill="#FFFFFF" d="M51.9,48.5c-8,4.6-14,10.8-17.8,18.7l-0.9,1.9L22.4,60l0-44C10.1,22.4,1.7,35,1.7,49.8
	C1.7,70.9,18.8,88,39.9,88c3.8,0,7.3-0.7,10.7-1.7c-1.8-4.7-2.7-10.9-2.7-19C47.9,62.2,49.2,55.9,51.9,48.5z"/>
<path fill="#FFFFFF" d="M58.2,32.3l0.8-0.4l11.9,7.1l-1.2,1.5c-5.4,6.8-8.9,12.4-10.5,16.6c-1.7,4.6-2.6,11.1-2.6,19.3
	c0,2.6,0.4,5,0.9,7.1c12.2-6.4,20.6-19,20.6-33.7c0-21.1-17.1-38.2-38.2-38.2c-2.4,0-4.7,0.3-6.9,0.7v36.3
	C42.4,41.2,50.9,35.7,58.2,32.3z"/>
</svg>
