<?xml version="1.0" encoding="utf-8"?>
<!-- Generator: Adobe Illustrator 18.1.1, SVG Export Plug-In . SVG Version: 6.00 Build 0)  -->
<svg version="1.1" id="Layer_1" xmlns="http://www.w3.org/2000/svg" xmlns:xlink="http://www.w3.org/1999/xlink" x="0px" y="0px"
	 viewBox="0 0 250 76" enable-background="new 0 0 250 76" xml:space="preserve">
<g>
	<path fill="#FFFFFF" d="M242.6,21.4h-47h-6.7h-47l0.1,0.1h-0.6c-0.7-1.7-1.2-2.8-1.4-3.3c0-0.4,0.4-1.2,1.1-2.4
		c3.6-5.7,8.3-8.6,14.1-8.6c5.8,0,11.6,2.2,17.5,6.6l8,6.2l-2-5.9C169.7,5,160.5,0.5,151,0.5c-7.1,0-12.9,3.8-17.3,11.3
		c-0.7,1.2-1,2.6-1,4.3c0,1.6,1.1,3.4,3.3,5.5h-3.7h-7.9H83.2l6.5,6.3h4.1v25.6l7.4,7.6c3.3-8.6,8.9-14.5,16.7-17.8
		c-0.7,3.4-1,6.9-1,10.5c0,4.4,0.9,10.9,2.7,19.3l5.1,2.6c-1.1-6.6-1.6-10.3-1.6-11.2c0-0.5,0-1.2-0.1-2.1c-0.1-0.9-0.1-1.6-0.1-2.1
		c0-6.3,2.1-13.6,6.4-21.8l-8.9-6.6c-5.5,2.1-9.9,4.5-13.1,7.1c-3,2.6-5.2,4.5-6.6,5.9V27.8h30.2h6.1V69l6.5,6.2V27.8h5.1l0.1,0.1
		h34.8v7.6c-2-3.3-4.5-5-7.5-5c-0.9,0-1.9,0.5-3,1.5c-1.1,1-2,2-2.6,3.2c-2.7-3.1-5.8-4.6-9.4-4.6c-3.5,0-6.3,1.5-8.4,4.5
		c-1.8,2.6-2.7,5.6-2.7,9c0,4.2,1.2,7.5,3.7,10.1c2.5,2.5,5.8,3.8,10,3.8c1.8,0,3.5-0.5,5.1-1.5c1.9-1.2,2.8-2.8,2.8-4.6
		c0-1.9-0.5-3.8-1.6-5.5c-1.3-2-3-3-5-3c-1.7,0-3.1,0.5-4.3,1.6c-1.2,1.1-1.8,2.5-1.8,4.2c0,0.7,0.1,1.4,0.4,2.1
		c-2.1-0.9-3.2-2.5-3.2-5c0-2,0.7-3.6,2.2-5c1.5-1.4,3.2-2.1,5.2-2.1s3.6,0.5,4.8,1.4c1,0.8,2.2,2.2,3.4,4.1
		c0.5,0.8,0.8,1.3,0.8,1.6l-0.3,1.7l4.1-1.7c-0.4-2.2-0.5-3.5-0.5-3.7c0-2.2,0.9-3.3,2.8-3.3c1.2,0,2.4,0.5,3.4,1.6
		c1.1,1,1.6,2.2,1.6,3.4v25.7l6.4,6.2V27.9h5.8h6.7h28v7.6c-2-3.3-4.5-5-7.5-5c-0.9,0-1.9,0.5-3,1.5c-1.1,1-2,2-2.6,3.2
		c-2.7-3.1-5.8-4.6-9.4-4.6c-3.5,0-6.3,1.5-8.4,4.5c-1.8,2.6-2.7,5.6-2.7,9c0,4.2,1.2,7.5,3.7,10.1c2.5,2.5,5.8,3.8,10,3.8
		c1.8,0,3.5-0.5,5.1-1.5c1.9-1.2,2.8-2.8,2.8-4.6c0-1.9-0.5-3.8-1.6-5.5c-1.3-2-3-3-5-3c-1.7,0-3.1,0.5-4.3,1.6
		c-1.2,1.1-1.8,2.5-1.8,4.2c0,0.7,0.1,1.4,0.4,2.1c-2.1-0.9-3.2-2.5-3.2-5c0-2,0.7-3.6,2.2-5c1.5-1.4,3.2-2.1,5.2-2.1
		s3.6,0.5,4.8,1.4c1,0.8,2.2,2.2,3.4,4.1c0.5,0.8,0.8,1.3,0.8,1.6l-0.3,1.7l4.1-1.7c-0.4-2.2-0.5-3.5-0.5-3.7c0-2.2,0.9-3.3,2.8-3.3
		c1.2,0,2.4,0.5,3.4,1.6c1.1,1,1.6,2.2,1.6,3.4v25.7l6.4,6.2V27.9h12.6L242.6,21.4z"/>
	<path fill="#FFFFFF" d="M39,0.2c-2.7,0-5.3,0.4-7.9,1v32.9c1.6-1.5,3.6-3.2,5.8-5.1c4.5-3.7,10.7-7,18.3-9.9l0.9-0.4l14.2,10.5
		l-0.7,1.4C64,41.4,61.2,51,61.2,59.2c0,0.6,0.1,1.5,0.2,2.7c0.1,1.4,0.2,2.4,0.2,3.1c0,0.2,0.1,0.9,0.4,3.1
		c9.1-6.9,15-17.8,15-30.1C76.9,17.1,59.9,0.2,39,0.2z"/>
	<path fill="#FFFFFF" d="M49.5,50.6c0-3.7,0.3-7.4,0.8-11c-8.4,4.5-14.6,11.8-18.4,21.6l-1,2.7L18.3,51.1V6.6
		C8,13.4,1.1,24.8,1.1,38.1c0,20.9,17,37.9,37.9,37.9c4.8,0,9.3-1,13.5-2.6l-0.1-0.3C50.5,63.3,49.5,55.9,49.5,50.6z"/>
</g>
</svg>
